<svg xmlns="http://www.w3.org/2000/svg" viewBox="-500 -500 1000 1000">
  <rect x="-500" y="-500" width="1000" height="1000" fill="#121212"/>
  <defs>
    <linearGradient id="g" x1="0%" y1="0%" x2="100%" y2="0%">
      <stop offset="0%" stop-color="#00CC00"/>
      <stop offset="15%" stop-color="#006600"/>
      <stop offset="100%" stop-color="#000000"/>
    </linearGradient>
    <path id="b" d="M -10,-145 C 30,-220 -180,-340 -40,-443 A 445 445 0 0 1 60,-441 C -100,-340 100,-220 25,-145 Z" fill="url(#g)" stroke="#00CC00" stroke-width="5" stroke-linejoin="round"/>
    <clipPath id="overlap-fix">
      <rect x="-500" y="-500" width="550" height="500"/>
    </clipPath>
  </defs>
  <g transform="scale(1.15) rotate(15)">
    <path d="M 0,0 C -22,0 -34,-22 -15,-37 C 11,-56 52,-30 49,11 C 45,52 -7,67 -41,45" fill="none" stroke="#D0D0D0" stroke-width="16" stroke-linecap="round"/>
  </g>
  <circle r="145" fill="none" stroke="#00CC00" stroke-width="22"/>
  <g>
    <use href="#b" transform="rotate(0)"/><use href="#b" transform="rotate(20)"/>
    <use href="#b" transform="rotate(40)"/><use href="#b" transform="rotate(60)"/>
    <use href="#b" transform="rotate(80)"/><use href="#b" transform="rotate(100)"/>
    <use href="#b" transform="rotate(120)"/><use href="#b" transform="rotate(140)"/>
    <use href="#b" transform="rotate(160)"/><use href="#b" transform="rotate(180)"/>
    <use href="#b" transform="rotate(200)"/><use href="#b" transform="rotate(220)"/>
    <use href="#b" transform="rotate(240)"/><use href="#b" transform="rotate(260)"/>
    <use href="#b" transform="rotate(280)"/><use href="#b" transform="rotate(300)"/>
    <use href="#b" transform="rotate(320)"/><use href="#b" transform="rotate(340)"/>
    <use href="#b" transform="rotate(0)" clip-path="url(#overlap-fix)"/>
  </g>
  <circle r="460" fill="none" stroke="#00CC00" stroke-width="14"/>
  <circle r="485" fill="none" stroke="#00CC00" stroke-width="24"/>
  <path d="M -415,220 A 470 470 0 0 0 415,220" fill="none" stroke="#00CC00" stroke-width="20" stroke-linecap="round"/>
</svg>
